<?xml version="1.0" standalone="no"?>
<!DOCTYPE svg PUBLIC "-//W3C//DTD SVG 20010904//EN"
 "http://www.w3.org/TR/2001/REC-SVG-20010904/DTD/svg10.dtd">
<svg version="1.0" xmlns="http://www.w3.org/2000/svg"
 width="191.000000pt" height="191.000000pt" viewBox="0 0 191.000000 191.000000"
 preserveAspectRatio="xMidYMid meet">
<metadata>
Created by potrace 1.14, written by Peter Selinger 2001-2017
</metadata>
<g transform="translate(0.000000,191.000000) scale(0.100000,-0.100000)"
fill="#000000" stroke="none">
<path d="M524 1563 c3 -16 8 -46 11 -68 3 -22 7 -51 10 -65 18 -100 20 -93
-53 -156 -100 -88 -142 -125 -192 -171 l-45 -43 53 4 c28 1 52 -1 52 -6 0 -5
-25 -59 -56 -120 -30 -61 -54 -112 -52 -113 3 -3 153 56 188 74 12 7 29 -24
84 -158 38 -91 73 -170 77 -175 4 -4 13 14 21 40 l14 49 69 -132 c38 -73 71
-130 74 -127 3 3 11 19 16 35 l10 29 54 -85 c30 -47 58 -82 62 -78 4 5 33 116
64 248 31 132 58 245 60 251 2 6 36 20 77 32 40 11 150 41 243 67 94 26 176
48 183 49 21 4 28 16 105 186 l75 165 -195 3 -195 2 -46 40 c-24 22 -54 40
-66 41 -12 0 -28 2 -36 4 -8 2 -71 12 -140 24 -165 28 -149 23 -280 76 -109
44 -141 58 -218 91 l-34 14 6 -27z m695 -293 l75 -23 -24 -19 c-30 -24 -73
-18 -108 15 -31 29 -50 62 -31 55 8 -3 47 -15 88 -28z"/>
</g>
</svg>
